<svg width="327" height="38" viewBox="0 0 327 38" fill="none" xmlns="http://www.w3.org/2000/svg">
<path d="M0.904688 14.04H7.94469V6.8H10.8247V14.04H17.8647V16.92H10.8247V24.12H7.94469V16.92H0.904688V14.04ZM23.9 29L33.94 5.56L35.7 3.6L33.34 3.96H21.94V0.999998H38.66V2.08L27.14 29H23.9ZM58.8925 37.8C57.6658 36.52 56.6258 35.1067 55.7725 33.56C54.9192 32.04 54.2258 30.48 53.6925 28.88C53.1858 27.2533 52.8125 25.6267 52.5725 24C52.3325 22.3467 52.2125 20.7733 52.2125 19.28C52.2125 17.8133 52.3325 16.2667 52.5725 14.64C52.8125 13.0133 53.1992 11.3867 53.7325 9.76C54.2658 8.10667 54.9592 6.49333 55.8125 4.92C56.6925 3.34667 57.7592 1.88 59.0125 0.52L60.9325 1.92C59.8658 3.28 58.9725 4.69333 58.2525 6.16C57.5592 7.6 56.9992 9.06667 56.5725 10.56C56.1458 12.0533 55.8392 13.5467 55.6525 15.04C55.4925 16.5067 55.4125 17.92 55.4125 19.28C55.4125 20.56 55.5058 21.96 55.6925 23.48C55.9058 24.9733 56.2258 26.48 56.6525 28C57.1058 29.4933 57.6792 30.96 58.3725 32.4C59.0925 33.84 59.9458 35.1467 60.9325 36.32L58.8925 37.8ZM63.7434 22.32C63.7434 20.64 64.1834 19.1867 65.0634 17.96C65.9434 16.7067 67.3168 15.5733 69.1834 14.56C68.5168 14.16 67.8901 13.7467 67.3034 13.32C66.7434 12.8667 66.2368 12.36 65.7834 11.8C65.3568 11.24 65.0101 10.6133 64.7434 9.92C64.5034 9.22667 64.3834 8.42667 64.3834 7.52C64.3834 6.48 64.5568 5.53333 64.9034 4.68C65.2768 3.82666 65.7968 3.09333 66.4634 2.48C67.1568 1.86666 67.9701 1.38666 68.9034 1.04C69.8634 0.693332 70.9434 0.52 72.1434 0.52C73.2634 0.52 74.2768 0.679999 75.1834 0.999998C76.0901 1.32 76.8501 1.76 77.4634 2.32C78.1034 2.88 78.5968 3.54667 78.9434 4.32C79.2901 5.09333 79.4634 5.94667 79.4634 6.88C79.4634 8.4 79.1168 9.74667 78.4234 10.92C77.7301 12.0667 76.5834 13.2 74.9834 14.32C75.6768 14.72 76.3301 15.16 76.9434 15.64C77.5834 16.12 78.1301 16.6533 78.5834 17.24C79.0634 17.8267 79.4368 18.4933 79.7034 19.24C79.9701 19.96 80.1034 20.7867 80.1034 21.72C80.1034 22.8667 79.9168 23.92 79.5434 24.88C79.1701 25.8133 78.6234 26.6267 77.9034 27.32C77.1834 27.9867 76.3034 28.52 75.2634 28.92C74.2234 29.2933 73.0368 29.48 71.7034 29.48C70.4234 29.48 69.2901 29.2933 68.3034 28.92C67.3168 28.5467 66.4768 28.04 65.7834 27.4C65.1168 26.76 64.6101 26.0133 64.2634 25.16C63.9168 24.28 63.7434 23.3333 63.7434 22.32ZM76.9834 21.92C76.9834 21.12 76.8234 20.4267 76.5034 19.84C76.1834 19.2267 75.7568 18.68 75.2234 18.2C74.7168 17.6933 74.1301 17.24 73.4634 16.84C72.7968 16.44 72.1034 16.0533 71.3834 15.68C69.7568 16.5867 68.5968 17.6 67.9034 18.72C67.2101 19.84 66.8634 20.9067 66.8634 21.92C66.8634 22.56 66.9701 23.1733 67.1834 23.76C67.3968 24.3467 67.7168 24.8533 68.1434 25.28C68.5701 25.7067 69.0901 26.0533 69.7034 26.32C70.3434 26.56 71.0768 26.68 71.9034 26.68C72.5701 26.68 73.2101 26.5867 73.8234 26.4C74.4368 26.1867 74.9701 25.8933 75.4234 25.52C75.9034 25.12 76.2768 24.6267 76.5434 24.04C76.8368 23.4267 76.9834 22.72 76.9834 21.92ZM67.5034 7.44C67.5034 8.18667 67.6501 8.85333 67.9434 9.44C68.2368 10 68.6234 10.5067 69.1034 10.96C69.6101 11.4133 70.1834 11.84 70.8234 12.24C71.4634 12.6133 72.1301 12.9733 72.8234 13.32C74.0234 12.3867 74.9034 11.4667 75.4634 10.56C76.0501 9.65333 76.3434 8.65333 76.3434 7.56C76.3434 6.2 75.9168 5.16 75.0634 4.44C74.2368 3.69333 73.2368 3.32 72.0634 3.32C71.3434 3.32 70.7034 3.44 70.1434 3.68C69.5834 3.92 69.1034 4.22667 68.7034 4.6C68.3034 4.97333 67.9968 5.41333 67.7834 5.92C67.5968 6.4 67.5034 6.90667 67.5034 7.44ZM87.1403 26.04H92.7403V6.68L93.1403 4.32L91.5403 6.2L87.1403 9.36L85.6203 7.32L94.4203 0.52H95.8603V26.04H101.34V29H87.1403V26.04ZM122.457 7.36C122.457 8.77333 122.191 10.2267 121.657 11.72C121.151 13.1867 120.471 14.6667 119.617 16.16C118.791 17.6533 117.857 19.12 116.817 20.56C115.777 21.9733 114.737 23.32 113.697 24.6L111.737 26.32V26.48L114.297 26.04H123.017V29H107.097V27.84C107.684 27.2267 108.391 26.4667 109.217 25.56C110.044 24.6533 110.897 23.6533 111.777 22.56C112.684 21.44 113.564 20.2667 114.417 19.04C115.297 17.7867 116.084 16.52 116.777 15.24C117.497 13.96 118.071 12.6933 118.497 11.44C118.924 10.1867 119.137 9 119.137 7.88C119.137 6.57333 118.764 5.49333 118.017 4.64C117.271 3.76 116.137 3.32 114.617 3.32C113.604 3.32 112.617 3.53333 111.657 3.96C110.697 4.36 109.871 4.82667 109.177 5.36L107.857 3.08C108.791 2.28 109.897 1.65333 111.177 1.2C112.457 0.746666 113.831 0.52 115.297 0.52C116.444 0.52 117.457 0.693332 118.337 1.04C119.217 1.36 119.964 1.82667 120.577 2.44C121.191 3.05333 121.657 3.78667 121.977 4.64C122.297 5.46667 122.457 6.37333 122.457 7.36ZM128.534 0.52C129.761 1.8 130.801 3.21333 131.654 4.76C132.507 6.28 133.187 7.85333 133.694 9.48C134.227 11.08 134.614 12.7067 134.854 14.36C135.094 15.9867 135.214 17.5467 135.214 19.04C135.214 20.5067 135.094 22.0533 134.854 23.68C134.614 25.3067 134.227 26.9467 133.694 28.6C133.161 30.2267 132.454 31.8267 131.574 33.4C130.721 34.9733 129.667 36.44 128.414 37.8L126.494 36.4C127.561 35.04 128.454 33.6267 129.174 32.16C129.894 30.6933 130.454 29.2133 130.854 27.72C131.281 26.2267 131.574 24.7467 131.734 23.28C131.921 21.8133 132.014 20.4 132.014 19.04C132.014 17.76 131.907 16.3733 131.694 14.88C131.481 13.3867 131.147 11.88 130.694 10.36C130.267 8.84 129.707 7.36 129.014 5.92C128.321 4.48 127.481 3.17333 126.494 2L128.534 0.52ZM151.009 22.32C151.009 20.64 151.449 19.1867 152.329 17.96C153.209 16.7067 154.582 15.5733 156.449 14.56C155.782 14.16 155.156 13.7467 154.569 13.32C154.009 12.8667 153.502 12.36 153.049 11.8C152.622 11.24 152.276 10.6133 152.009 9.92C151.769 9.22667 151.649 8.42667 151.649 7.52C151.649 6.48 151.822 5.53333 152.169 4.68C152.542 3.82666 153.062 3.09333 153.729 2.48C154.422 1.86666 155.236 1.38666 156.169 1.04C157.129 0.693332 158.209 0.52 159.409 0.52C160.529 0.52 161.542 0.679999 162.449 0.999998C163.356 1.32 164.116 1.76 164.729 2.32C165.369 2.88 165.862 3.54667 166.209 4.32C166.556 5.09333 166.729 5.94667 166.729 6.88C166.729 8.4 166.382 9.74667 165.689 10.92C164.996 12.0667 163.849 13.2 162.249 14.32C162.942 14.72 163.596 15.16 164.209 15.64C164.849 16.12 165.396 16.6533 165.849 17.24C166.329 17.8267 166.702 18.4933 166.969 19.24C167.236 19.96 167.369 20.7867 167.369 21.72C167.369 22.8667 167.182 23.92 166.809 24.88C166.436 25.8133 165.889 26.6267 165.169 27.32C164.449 27.9867 163.569 28.52 162.529 28.92C161.489 29.2933 160.302 29.48 158.969 29.48C157.689 29.48 156.556 29.2933 155.569 28.92C154.582 28.5467 153.742 28.04 153.049 27.4C152.382 26.76 151.876 26.0133 151.529 25.16C151.182 24.28 151.009 23.3333 151.009 22.32ZM164.249 21.92C164.249 21.12 164.089 20.4267 163.769 19.84C163.449 19.2267 163.022 18.68 162.489 18.2C161.982 17.6933 161.396 17.24 160.729 16.84C160.062 16.44 159.369 16.0533 158.649 15.68C157.022 16.5867 155.862 17.6 155.169 18.72C154.476 19.84 154.129 20.9067 154.129 21.92C154.129 22.56 154.236 23.1733 154.449 23.76C154.662 24.3467 154.982 24.8533 155.409 25.28C155.836 25.7067 156.356 26.0533 156.969 26.32C157.609 26.56 158.342 26.68 159.169 26.68C159.836 26.68 160.476 26.5867 161.089 26.4C161.702 26.1867 162.236 25.8933 162.689 25.52C163.169 25.12 163.542 24.6267 163.809 24.04C164.102 23.4267 164.249 22.72 164.249 21.92ZM154.769 7.44C154.769 8.18667 154.916 8.85333 155.209 9.44C155.502 10 155.889 10.5067 156.369 10.96C156.876 11.4133 157.449 11.84 158.089 12.24C158.729 12.6133 159.396 12.9733 160.089 13.32C161.289 12.3867 162.169 11.4667 162.729 10.56C163.316 9.65333 163.609 8.65333 163.609 7.56C163.609 6.2 163.182 5.16 162.329 4.44C161.502 3.69333 160.502 3.32 159.329 3.32C158.609 3.32 157.969 3.44 157.409 3.68C156.849 3.92 156.369 4.22667 155.969 4.6C155.569 4.97333 155.262 5.41333 155.049 5.92C154.862 6.4 154.769 6.90667 154.769 7.44ZM174.406 26.04H180.006V6.68L180.406 4.32L178.806 6.2L174.406 9.36L172.886 7.32L181.686 0.52H183.126V26.04H188.606V29H174.406V26.04ZM209.723 7.36C209.723 8.77333 209.456 10.2267 208.923 11.72C208.416 13.1867 207.736 14.6667 206.883 16.16C206.056 17.6533 205.123 19.12 204.083 20.56C203.043 21.9733 202.003 23.32 200.963 24.6L199.003 26.32V26.48L201.563 26.04H210.283V29H194.363V27.84C194.949 27.2267 195.656 26.4667 196.483 25.56C197.309 24.6533 198.163 23.6533 199.043 22.56C199.949 21.44 200.829 20.2667 201.683 19.04C202.563 17.7867 203.349 16.52 204.043 15.24C204.763 13.96 205.336 12.6933 205.763 11.44C206.189 10.1867 206.403 9 206.403 7.88C206.403 6.57333 206.029 5.49333 205.283 4.64C204.536 3.76 203.403 3.32 201.883 3.32C200.869 3.32 199.883 3.53333 198.923 3.96C197.963 4.36 197.136 4.82667 196.443 5.36L195.123 3.08C196.056 2.28 197.163 1.65333 198.443 1.2C199.723 0.746666 201.096 0.52 202.563 0.52C203.709 0.52 204.723 0.693332 205.603 1.04C206.483 1.36 207.229 1.82667 207.843 2.44C208.456 3.05333 208.923 3.78667 209.243 4.64C209.563 5.46667 209.723 6.37333 209.723 7.36ZM216.04 16H225.72V18.96H216.04V16ZM232.414 26.04H238.014V6.68L238.414 4.32L236.814 6.2L232.414 9.36L230.894 7.32L239.694 0.52H241.134V26.04H246.614V29H232.414V26.04ZM267.731 7.36C267.731 8.77333 267.464 10.2267 266.931 11.72C266.424 13.1867 265.744 14.6667 264.891 16.16C264.064 17.6533 263.131 19.12 262.091 20.56C261.051 21.9733 260.011 23.32 258.971 24.6L257.011 26.32V26.48L259.571 26.04H268.291V29H252.371V27.84C252.957 27.2267 253.664 26.4667 254.491 25.56C255.317 24.6533 256.171 23.6533 257.051 22.56C257.957 21.44 258.837 20.2667 259.691 19.04C260.571 17.7867 261.357 16.52 262.051 15.24C262.771 13.96 263.344 12.6933 263.771 11.44C264.197 10.1867 264.411 9 264.411 7.88C264.411 6.57333 264.037 5.49333 263.291 4.64C262.544 3.76 261.411 3.32 259.891 3.32C258.877 3.32 257.891 3.53333 256.931 3.96C255.971 4.36 255.144 4.82667 254.451 5.36L253.131 3.08C254.064 2.28 255.171 1.65333 256.451 1.2C257.731 0.746666 259.104 0.52 260.571 0.52C261.717 0.52 262.731 0.693332 263.611 1.04C264.491 1.36 265.237 1.82667 265.851 2.44C266.464 3.05333 266.931 3.78667 267.251 4.64C267.571 5.46667 267.731 6.37333 267.731 7.36ZM274.048 16H283.728V18.96H274.048V16ZM290.422 26.04H296.022V6.68L296.422 4.32L294.822 6.2L290.422 9.36L288.902 7.32L297.702 0.52H299.142V26.04H304.622V29H290.422V26.04ZM325.738 7.36C325.738 8.77333 325.472 10.2267 324.938 11.72C324.432 13.1867 323.752 14.6667 322.898 16.16C322.072 17.6533 321.138 19.12 320.098 20.56C319.058 21.9733 318.018 23.32 316.978 24.6L315.018 26.32V26.48L317.578 26.04H326.298V29H310.378V27.84C310.965 27.2267 311.672 26.4667 312.498 25.56C313.325 24.6533 314.178 23.6533 315.058 22.56C315.965 21.44 316.845 20.2667 317.698 19.04C318.578 17.7867 319.365 16.52 320.058 15.24C320.778 13.96 321.352 12.6933 321.778 11.44C322.205 10.1867 322.418 9 322.418 7.88C322.418 6.57333 322.045 5.49333 321.298 4.64C320.552 3.76 319.418 3.32 317.898 3.32C316.885 3.32 315.898 3.53333 314.938 3.96C313.978 4.36 313.152 4.82667 312.458 5.36L311.138 3.08C312.072 2.28 313.178 1.65333 314.458 1.2C315.738 0.746666 317.112 0.52 318.578 0.52C319.725 0.52 320.738 0.693332 321.618 1.04C322.498 1.36 323.245 1.82667 323.858 2.44C324.472 3.05333 324.938 3.78667 325.258 4.64C325.578 5.46667 325.738 6.37333 325.738 7.36Z" fill="black"/>
</svg>
